<svg xmlns="http://www.w3.org/2000/svg" width="128" height="40" viewBox="0 0 128 40" fill="none"><path d="M16.8926 11.3078C16.857 10.4843 16.6315 9.66702 16.2135 8.92847L12.5236 2.41274C12.2416 1.91537 12.0479 1.38302 11.94 0.836914L11.7856 1.10934C10.8723 2.7214 10.8723 4.70961 11.7856 6.32167L14.7375 11.534C15.6508 13.1461 15.6508 15.1343 14.7375 16.7463L14.583 17.0188C14.4752 16.4727 14.2802 15.9403 13.9995 15.4429L11.2965 10.6717L9.57043 7.62507C9.2897 7.12771 9.09478 6.59535 8.98691 6.04925L8.83245 6.32167C7.92285 7.92999 7.91917 9.90695 8.82387 11.5178L11.7856 16.7476C12.6989 18.3597 12.6989 20.3479 11.7856 21.9599L11.6311 22.2324C11.5232 21.6863 11.3283 21.1539 11.0476 20.6565L7.35772 14.1408C6.86246 13.2673 6.6369 12.2838 6.67858 11.3091C2.72635 12.3613 0 14.5944 0 17.1812C0 20.7802 5.27618 23.697 11.7856 23.697C18.295 23.697 23.5712 20.7802 23.5712 17.1812C23.5712 14.5944 20.8448 12.36 16.8938 11.3078M28.0211 22.4336C28.0652 21.5088 28.1976 20.8765 28.4416 20.1542C29.6809 20.7403 31.2758 21.0339 32.4931 21.0339C34.5526 21.0339 35.7025 20.3579 35.7025 19.0257C35.7025 17.6936 34.8615 17.1075 32.78 16.1827L31.6509 15.6866C29.5694 14.7606 28.1535 13.5647 28.1535 11.1729C28.1535 8.60106 29.9028 6.95275 33.4885 6.95275C34.9277 6.95275 36.2774 7.15645 37.54 7.60758C37.4739 8.50983 37.3182 9.20964 37.0975 9.86321C35.9023 9.41209 34.4864 9.20964 33.4665 9.20964C31.5406 9.20964 30.6555 9.97693 30.6555 11.1729C30.6555 12.3688 31.5185 13.0236 33.0693 13.7009L34.2645 14.2195C37.0754 15.4379 38.2486 16.7251 38.2486 18.9133C38.2486 21.5088 36.3228 23.2908 32.5593 23.2908C30.7438 23.2908 29.2605 23.0196 28.0211 22.4336ZM50.1359 11.6465V22.9309H47.8999L47.7675 21.5763C47.1472 22.5698 46.1947 23.2008 44.6452 23.2008C41.724 23.2008 39.776 21.0352 39.776 17.2437C39.776 13.4522 41.8576 11.0154 45.952 11.0154C47.5457 11.0154 48.8512 11.1954 50.1359 11.6465ZM47.7013 20.3579V13.2723C47.1926 13.1823 46.6385 13.1373 45.9532 13.1373C43.4292 13.1373 42.2572 14.7181 42.2572 17.245C42.2572 19.5468 43.1644 21.1714 45.3342 21.1714C46.2867 21.1714 47.0614 20.8552 47.7026 20.3591M62.6007 15.3492V22.9322H60.1661V15.7791C60.1661 13.9958 59.5899 13.1386 57.1553 13.1386C56.5804 13.1386 55.8939 13.2061 55.2295 13.3185V22.9322H52.7949V11.6452C54.3444 11.2616 56.0483 11.0142 57.2215 11.0142C61.2951 11.0142 62.6007 12.615 62.6007 15.3455M69.3528 21.0777C70.0613 21.0777 70.7258 20.9427 71.2566 20.739C71.1904 21.4163 71.1021 22.1836 70.9685 22.8384C70.3053 23.1096 69.5967 23.1996 68.9102 23.1996C66.5419 23.1996 65.0365 22.0949 65.0365 19.3406V7.49386C65.7892 7.24642 66.7184 7.1327 67.4723 7.1327V11.3978H71.324C71.2799 12.1651 71.2137 12.8649 71.1033 13.5197H67.4723V19.0482C67.4723 20.5153 68.1796 21.0789 69.354 21.0789M82.4157 11.6465V22.9309H80.1797L80.0473 21.5763C79.427 22.5698 78.4758 23.2008 76.9263 23.2008C74.0038 23.2008 72.0558 21.0352 72.0558 17.2437C72.0558 13.4522 74.1374 11.0154 78.2318 11.0154C79.8255 11.0154 81.131 11.1954 82.4157 11.6465ZM79.9799 20.3579V13.2723C79.4712 13.1823 78.9183 13.1373 78.2318 13.1373C75.7077 13.1373 74.5346 14.7181 74.5346 17.245C74.5346 19.5468 75.4429 21.1714 77.6128 21.1714C78.564 21.1714 79.3388 20.8552 79.9811 20.3591M94.8792 15.3492V22.9322H92.4446V15.7791C92.4446 13.9958 91.8697 13.1386 89.4339 13.1386C88.859 13.1386 88.1725 13.2061 87.508 13.3185V22.9322H85.0734V11.6452C86.623 11.2616 88.3269 11.0142 89.5001 11.0142C93.5737 11.0142 94.8792 12.615 94.8792 15.3455M107.232 7.13145V22.9284H104.996L104.864 21.4838C104.245 22.5448 103.292 23.1983 101.698 23.1983C98.7763 23.1983 96.8284 21.0327 96.8284 17.2412C96.8284 13.4497 98.9099 11.0129 103.004 11.0129C103.645 11.0129 104.244 11.0804 104.82 11.1929V7.47011C105.573 7.19894 106.436 7.13145 107.232 7.13145ZM104.82 20.3104V13.3598C104.178 13.2248 103.514 13.1336 102.872 13.1336C100.459 13.1336 99.3083 14.6682 99.3083 17.2412C99.3083 19.5431 100.215 21.1676 102.385 21.1676C103.36 21.1676 104.157 20.829 104.821 20.3104M119.476 18.0997H111.707C112.017 20.1079 113.168 21.0777 115.337 21.0777C116.666 21.0777 118.016 20.784 119.233 20.2204C119.144 20.874 119.011 21.7325 118.856 22.476C117.749 22.9959 116.576 23.1983 115.27 23.1983C111.197 23.1983 109.227 20.8965 109.227 17.0388C109.227 13.6759 110.754 11.0142 114.628 11.0142C118.103 11.0142 119.609 13.3385 119.609 16.1815C119.609 16.8813 119.565 17.4449 119.476 18.0997ZM111.661 16.0228H117.151C117.151 14.172 116.178 13.0898 114.494 13.0898C112.811 13.0898 111.861 14.1058 111.661 16.0228ZM127.999 11.1041C127.999 11.8489 127.911 12.7524 127.778 13.2261C127.203 13.1586 126.627 13.1361 125.941 13.1361C125.344 13.1361 124.745 13.1811 124.148 13.271V22.9297H121.712V11.6452C122.753 11.2841 124.501 11.0142 125.874 11.0142C126.627 11.0142 127.469 11.0354 128 11.1041" fill="#EC0000"></path><path d="M33.1042 39.836C31.5738 39.836 30.3918 39.3446 29.5565 38.3627C28.722 37.3799 28.3043 36.0479 28.3043 34.3667C28.3043 32.6855 28.7335 31.2904 29.5936 30.3328C30.4529 29.3753 31.663 28.8973 33.223 28.8973C34.117 28.8973 34.8574 29.0185 35.4434 29.2617C35.4335 29.5755 35.3741 29.8944 35.2643 30.2192C34.6279 29.9761 33.9477 29.8549 33.2222 29.8549C32.0394 29.8549 31.1033 30.2403 30.4125 31.0093C29.7216 31.7793 29.3765 32.8832 29.3765 34.3212C29.3765 35.7593 29.7216 36.8658 30.4125 37.6718C31.1033 38.4771 32.0443 38.8802 33.2371 38.8802C34.0319 38.8802 34.7368 38.7379 35.3534 38.4544C35.3435 38.748 35.2882 39.1031 35.1892 39.518C34.613 39.7308 33.9172 39.8369 33.1025 39.8369L33.1042 39.836Z" fill="#EC0000"></path><path d="M40.1244 39.8058C38.9713 39.8058 38.0873 39.4339 37.4715 38.6892C36.8549 37.9445 36.5471 36.9752 36.5471 35.7795C36.5471 34.4728 36.8698 33.4496 37.5161 32.71C38.1616 31.9703 39.0613 31.601 40.2136 31.601C41.3659 31.601 42.2507 31.9712 42.8665 32.71C43.4823 33.4496 43.791 34.4223 43.791 35.6272C43.791 36.934 43.4707 37.9572 42.8294 38.6968C42.188 39.4364 41.2866 39.8058 40.1244 39.8058ZM40.1839 38.8945C41.0283 38.8945 41.6672 38.6135 42.0988 38.0514C42.5314 37.4893 42.7476 36.7068 42.7476 35.7038C42.7476 34.7008 42.5264 33.9056 42.084 33.3486C41.6416 32.7916 41.0085 32.5131 40.1839 32.5131C39.3593 32.5131 38.6857 32.7941 38.254 33.3562C37.8223 33.9183 37.6052 34.7008 37.6052 35.7038C37.6052 36.7068 37.8265 37.5272 38.2689 38.0741C38.7105 38.6211 39.3494 38.8945 40.1839 38.8945Z" fill="#EC0000"></path><path d="M48.1574 31.601C49.3799 31.601 50.2466 31.8467 50.7583 32.3381C51.2701 32.8295 51.526 33.5666 51.526 34.5485V39.6232H50.4827V34.7311C50.4827 33.9511 50.3134 33.3865 49.9758 33.0373C49.6382 32.6881 49.0217 32.5131 48.1277 32.5131C47.5417 32.5131 46.9449 32.5838 46.339 32.726V39.6241H45.3105V32.0267C46.3638 31.7432 47.313 31.601 48.1574 31.601Z" fill="#EC0000"></path><path d="M55.5953 39.8057C54.5817 39.8057 53.7373 39.608 53.0613 39.2133C53.0712 38.8591 53.1207 38.5604 53.2107 38.3172C53.8867 38.7118 54.6766 38.9096 55.5805 38.9096C56.8029 38.9096 57.4137 38.4838 57.4137 37.6331C57.4137 37.2789 57.2916 36.9978 57.0481 36.79C56.8046 36.5822 56.415 36.3878 55.8784 36.2052L55.1925 35.962C54.4967 35.7289 53.9775 35.4327 53.6349 35.0735C53.2924 34.7142 53.1207 34.2505 53.1207 33.6834C53.1207 33.0145 53.3593 32.5012 53.8364 32.141C54.3134 31.7818 54.9787 31.6017 55.8339 31.6017C56.7575 31.6017 57.5475 31.7338 58.2037 31.9972C58.1839 32.2908 58.1343 32.5794 58.0543 32.863C57.3782 32.6097 56.6477 32.4835 55.8636 32.4835C54.7006 32.4835 54.1195 32.8739 54.1195 33.654C54.1195 34.0183 54.2482 34.3069 54.5074 34.5198C54.7658 34.7327 55.143 34.9254 55.6399 35.097L56.3555 35.3402C57.091 35.5935 57.6226 35.8947 57.9503 36.2439C58.278 36.5931 58.4422 37.0466 58.4422 37.6037C58.4422 38.2827 58.1913 38.8187 57.6894 39.2142C57.1876 39.6096 56.4893 39.8065 55.5953 39.8065V39.8057Z" fill="#EC0000"></path><path d="M65.0893 31.7836H66.1178V39.6232H65.1487L65.1042 38.696C64.5082 39.4356 63.6886 39.805 62.6452 39.805C61.7711 39.805 61.0951 39.5643 60.618 39.083C60.1409 38.6017 59.9023 37.8806 59.9023 36.918V31.7827H60.9308V36.6597C60.9308 38.149 61.611 38.8937 62.9729 38.8937C63.7876 38.8937 64.4933 38.6051 65.0893 38.0279V31.7836Z" fill="#EC0000"></path><path d="M76.2375 31.601C77.3403 31.601 78.1401 31.8492 78.637 32.3456C79.1339 32.8421 79.3824 33.5766 79.3824 34.5485V39.6232H78.3391V34.7008C78.3391 33.9612 78.1649 33.4117 77.8174 33.0524C77.4691 32.6931 76.9127 32.5131 76.1476 32.5131C75.4418 32.5131 74.741 32.6704 74.046 32.9843C74.2045 33.3697 74.2846 33.8501 74.2846 34.4273V39.6241H73.2412V34.5645C73.2412 33.856 73.0795 33.3368 72.7567 33.007C72.434 32.678 71.8446 32.5131 70.9903 32.5131C70.3646 32.5131 69.748 32.5838 69.1422 32.726V39.6241H68.1137V32.0267C69.1669 31.7432 70.1608 31.601 71.0943 31.601C72.1872 31.601 72.992 31.8189 73.5087 32.2539C74.4224 31.8189 75.332 31.601 76.2367 31.601H76.2375Z" fill="#EC0000"></path><path d="M87.4756 35.1256C87.4756 35.4395 87.4558 35.7331 87.4162 36.0066H81.8421C81.9015 36.949 82.1698 37.6651 82.6469 38.1565C83.124 38.6479 83.7942 38.8936 84.6585 38.8936C85.5829 38.8936 86.4174 38.6756 87.1628 38.2398C87.1232 38.6251 87.0687 38.9541 86.9985 39.2276C86.3431 39.613 85.5573 39.8048 84.6436 39.8048C83.3914 39.8048 82.4397 39.4455 81.7893 38.7261C81.138 38.0075 80.8128 36.9843 80.8128 35.6565C80.8128 34.4516 81.0984 33.4739 81.6696 32.7241C82.2408 31.9744 83.1075 31.6 84.2705 31.6C85.3436 31.6 86.1459 31.9265 86.6774 32.5802C87.209 33.2332 87.4748 34.0822 87.4748 35.1248L87.4756 35.1256ZM84.2268 32.4969C83.4913 32.4969 82.9251 32.7275 82.5272 33.1878C82.1302 33.6489 81.9015 34.2943 81.8413 35.1248H86.4323V35.0642C86.4323 34.2842 86.2433 33.6615 85.8661 33.1953C85.488 32.7292 84.9416 32.4961 84.2268 32.4961V32.4969Z" fill="#EC0000"></path><path d="M91.6935 31.601C92.2598 31.601 92.6824 31.6211 92.9606 31.6615C92.9606 32.0259 92.9259 32.3296 92.8566 32.5728C92.5784 32.5324 92.2012 32.5122 91.7241 32.5122C91.1777 32.5122 90.6461 32.5779 90.1294 32.71V39.6232H89.1009V32.0267C89.8859 31.7432 90.7501 31.601 91.6944 31.601H91.6935Z" fill="#EC0000"></path></svg>