<svg xmlns="http://www.w3.org/2000/svg" width="22" height="23" viewBox="0 0 22 23" fill="none"><path fill-rule="evenodd" clip-rule="evenodd" d="M19.2498 6.94046C19.2498 5.40858 18.0079 4.16663 16.476 4.16663H5.5264C3.99331 4.16663 2.74982 5.40978 2.74982 6.94321V13.3067C2.74982 14.8313 3.97897 16.0689 5.49982 16.0832V18.375C5.49982 18.7833 5.99351 18.9878 6.28224 18.6991L8.898 16.0833H16.4732C18.0069 16.0833 19.2498 14.8404 19.2498 13.3067V6.94046ZM5.5264 5.08329H16.476C17.5016 5.08329 18.3332 5.91484 18.3332 6.94046V13.3067C18.3332 14.3342 17.5007 15.1666 16.4732 15.1666H8.70815C8.58659 15.1666 8.47001 15.2149 8.38406 15.3009L6.41648 17.2684V15.625C6.41648 15.3718 6.21128 15.1666 5.95815 15.1666H5.5264C4.49952 15.1666 3.66648 14.3338 3.66648 13.3067V6.94321C3.66648 5.9161 4.49952 5.08329 5.5264 5.08329ZM11 12.8746C11.225 12.8746 11.4121 13.0367 11.4509 13.2505L11.4583 13.3329V13.7916C11.4583 14.0448 11.2531 14.25 11 14.25C10.775 14.25 10.5879 14.0878 10.5491 13.874L10.5417 13.7916V13.3329C10.5417 13.0798 10.7469 12.8746 11 12.8746ZM11.412 6.03674C9.98701 5.78401 8.70971 6.87852 8.70971 8.31042C8.70971 8.56355 8.91491 8.76875 9.16804 8.76875C9.42117 8.76875 9.62637 8.56355 9.62637 8.31042C9.62637 7.44411 10.3932 6.78702 11.2523 6.93937C11.7984 7.03584 12.2546 7.49727 12.351 8.05324C12.4579 8.66594 12.1732 9.24748 11.6601 9.5335L11.5176 9.6193C10.9173 10.01 10.5421 10.6414 10.5421 11.3437V11.9578L10.5495 12.0402C10.5883 12.254 10.7755 12.4162 11.0005 12.4162C11.2536 12.4162 11.4588 12.211 11.4588 11.9578V11.3437L11.466 11.2223C11.509 10.8619 11.7422 10.5367 12.106 10.3344L12.2442 10.2509C13.0071 9.75299 13.4188 8.84076 13.2541 7.8962C13.0921 6.96159 12.3397 6.20058 11.412 6.03674Z" fill="#767676"></path></svg>