<svg xmlns="http://www.w3.org/2000/svg" width="22" height="23" viewBox="0 0 22 23" fill="none"><path fill-rule="evenodd" clip-rule="evenodd" d="M3.63184 20.6663C2.68509 20.6663 1.90705 19.9313 1.83828 19.0018L1.83334 18.8678L1.83334 17.4579C1.83334 17.233 1.99558 17.0458 2.20932 17.007L2.29167 16.9996L4.125 16.9996C4.378 16.9996 4.58334 17.2049 4.58334 17.4579C4.58334 17.6836 4.4211 17.8702 4.20735 17.9089L4.125 17.9163L2.75 17.9163L2.75 18.8678C2.75 19.3197 3.09145 19.6927 3.52921 19.7437L3.63184 19.7496L5.5 19.7496L5.5 7.37459C5.5 7.1497 5.66224 6.96248 5.87599 6.92365L5.95834 6.91626L16.0417 6.91626C16.2666 6.91626 16.4538 7.0785 16.4926 7.29224L16.5 7.37459L16.5 19.7496L18.3682 19.7496C18.8193 19.7496 19.193 19.4089 19.2441 18.9705L19.25 18.8678L19.25 17.9163L17.875 17.9163C17.622 17.9163 17.4167 17.7118 17.4167 17.4579C17.4167 17.233 17.5789 17.0458 17.7927 17.007L17.875 16.9996L19.7083 16.9996C19.9332 16.9996 20.1205 17.1618 20.1593 17.3756L20.1667 17.4579L20.1667 18.8678C20.1667 19.8145 19.4317 20.5925 18.5022 20.6613L18.3682 20.6663L3.63184 20.6663ZM8.84369 2.46439C9.00235 2.30688 9.24736 2.29225 9.42457 2.41539L9.48754 2.46802L10.9929 3.98466L12.5146 2.4662C12.6922 2.289 12.9809 2.289 13.1585 2.4662C13.3163 2.62371 13.3339 2.86882 13.2111 3.04579L13.1585 3.10866L11.3135 4.94971C11.245 5.01805 11.1573 5.06254 11.0629 5.0776L10.9911 5.08329C10.8934 5.08329 10.7993 5.05189 10.7222 4.99512L10.6678 4.94789L8.84005 3.10684C8.66338 2.92874 8.66429 2.64068 8.84369 2.46439ZM15.5833 19.7496L6.41667 19.7496L6.41667 11.0174L6.59108 11.0127C8.26577 10.9218 9.60117 9.52983 9.60117 7.83293L12.3823 7.83293L12.3871 8.00834C12.4784 9.69259 13.8767 11.0348 15.5833 11.0348L15.5833 19.7496ZM6.41667 10.1008C7.61699 10.1008 8.60273 9.16388 8.67967 7.9819L8.68451 7.83293L6.41667 7.83293L6.41667 10.1008ZM15.5833 7.83293L15.5833 10.1182L15.4334 10.1133C14.2435 10.0357 13.299 9.04205 13.299 7.83293L15.5833 7.83293Z" fill="#EC0000"></path></svg>