<svg xmlns="http://www.w3.org/2000/svg" width="22" height="22" viewBox="0 0 22 22" fill="none"><path fill-rule="evenodd" clip-rule="evenodd" d="M16.9256 12.1737C15.8907 11.7883 14.7352 12.288 14.3082 13.306L13.4661 15.3105C10.969 13.9486 8.06454 11.0414 6.69041 8.53436L8.69441 7.69171C9.71194 7.26371 10.2116 6.1096 9.82734 5.07467L9.12045 3.17588C8.81968 2.36911 8.04969 1.83337 7.18942 1.83337H4.2295C2.90581 1.83337 1.83333 2.90655 1.83333 4.23046C1.83333 13.0318 8.96793 20.1667 17.7696 20.1667C19.0935 20.1667 20.1667 19.0942 20.1667 17.7705V14.8106C20.1667 13.9495 19.631 13.1788 18.8236 12.8794L16.9256 12.1737ZM13.4432 16.3306L13.4948 16.3559C13.7315 16.4722 14.0172 16.3652 14.1194 16.1221L15.1534 13.6608C15.3902 13.0962 16.0315 12.8189 16.6059 13.0328L18.5045 13.7387C18.9527 13.9049 19.25 14.3327 19.25 14.8106V17.7705C19.25 18.5878 18.5874 19.25 17.7696 19.25C9.4742 19.25 2.75 12.5256 2.75 4.23046C2.75 3.41268 3.41221 2.75004 4.2295 2.75004H7.18942C7.6666 2.75004 8.09435 3.04765 8.26146 3.4959L8.96813 5.39412C9.18133 5.96831 8.90389 6.60914 8.33904 6.84673L5.87784 7.88162C5.6356 7.98348 5.52843 8.26776 5.64314 8.50419C7.05317 11.4104 10.5425 14.9119 13.4432 16.3306Z" fill="#EC0000"></path></svg>