<svg xmlns="http://www.w3.org/2000/svg" width="560" height="553" viewBox="0 0 560 553" fill="none"><path fill-rule="evenodd" clip-rule="evenodd" d="M530.169 242.498C522.464 214.88 546.96 213.815 547.499 178.229C547.719 163.675 539.739 148.853 520.536 142.053C511.098 138.713 501.692 136.416 493.295 131.103C474.159 118.995 474.504 95.9558 469.283 76.3161C457.82 33.1808 413.698 -1.08834 369.036 0.0264461C336.84 0.8286 307.733 1.81449 278.381 29.1152C258.296 47.7964 245.243 70.7819 226.597 90.0405C206.85 110.434 182.788 120.219 155.77 126.772C130.217 132.969 102.42 140.342 82.8626 158.924C64.4828 176.387 67.162 194.651 75.0418 216.092C83.7328 239.736 64.8891 255.822 45.241 265.029C28.6977 272.781 1.00514 288.548 0.0992554 317.622C-2.70212 407.674 54.5538 408.035 75.901 416.594C272.277 495.331 347.64 434.601 430.907 435.829C513.913 437.052 561.495 336.768 558.611 307.235C554.952 269.737 535.551 261.782 530.169 242.498Z" fill="#DEEDF2"></path><path fill-rule="evenodd" clip-rule="evenodd" d="M452.397 32.4486C450.143 14.1596 434.541 0 415.63 0C395.171 0 378.585 16.5741 378.585 37.0201C378.585 40.3745 379.031 43.6246 379.868 46.7144C379.553 46.7185 379.242 46.7297 378.932 46.7478L378.583 46.719V46.7709C367.972 47.5676 359.608 56.4248 359.608 67.2333C359.608 78.0419 367.972 86.8991 378.583 87.6958V87.757H513.461V87.755H513.461C521.729 87.755 528.432 81.0558 528.432 72.7931C528.432 64.5304 521.729 57.8321 513.461 57.8321H513.461V57.8315L479.289 55.0161C479.445 53.9962 479.526 52.9516 479.526 51.8881C479.526 40.5551 470.333 31.3673 458.992 31.3673C456.685 31.3673 454.467 31.7475 452.397 32.4486Z" fill="#9BC3D3"></path><path fill-rule="evenodd" clip-rule="evenodd" d="M374.475 137.488C376.014 124.914 386.67 115.18 399.584 115.18C413.556 115.18 424.883 126.574 424.883 140.631C424.883 142.937 424.579 145.172 424.007 147.296C424.222 147.299 424.435 147.306 424.646 147.319L424.885 147.299V147.335C432.131 147.882 437.843 153.972 437.843 161.403C437.843 168.833 432.131 174.923 424.885 175.471V175.513H332.773V175.511H332.772C327.126 175.511 322.549 170.906 322.549 165.225C322.549 159.544 327.126 154.939 332.772 154.939H332.773V154.939L356.11 153.003C356.003 152.302 355.948 151.584 355.948 150.853C355.948 143.061 362.226 136.745 369.971 136.745C371.546 136.745 373.061 137.006 374.475 137.488Z" fill="#EFF6F9"></path><path fill-rule="evenodd" clip-rule="evenodd" d="M120.763 35.3052C122.43 21.5884 133.974 10.9688 147.965 10.9688C163.101 10.9688 175.372 23.3993 175.372 38.7338C175.372 41.2496 175.042 43.6872 174.423 46.0045C174.655 46.0076 174.886 46.016 175.115 46.0296L175.374 46.008V46.0469C183.224 46.6444 189.412 53.2874 189.412 61.3938C189.412 69.5002 183.224 76.1431 175.374 76.7406V76.7865H75.5857V76.785H75.5853C69.4688 76.785 64.5098 71.7606 64.5098 65.5636C64.5098 59.3665 69.4688 54.3428 75.5853 54.3428H75.5857V54.3424L100.867 52.2308C100.752 51.4659 100.692 50.6824 100.692 49.8849C100.692 41.385 107.493 34.4943 115.884 34.4943C117.591 34.4943 119.232 34.7794 120.763 35.3052Z" fill="#EFF6F9"></path><path d="M380.263 358.382C314.235 354.85 244.723 370.807 209.483 382.92C188.37 390.176 182.57 403.497 160.485 407.103C116.13 414.343 11.9804 416.486 9.92105 427.155C5.86677 448.159 41.0044 459.383 122.047 469.095C120.297 470.533 131.917 496.815 197.254 502.749C223.108 505.097 266.472 502.758 283.103 497.626C308.666 489.738 335.217 485.498 361.965 484.893C457.098 482.741 531.698 471.949 532.572 455.633C532.865 450.179 527.373 442.619 518.769 438.223C513.407 435.484 521.279 433.175 523.107 432.518C545.557 424.446 558.15 415.433 558.609 408.277C560.047 385.823 477.184 363.567 380.263 358.382Z" fill="#CEDEE7"></path><path fill-rule="evenodd" clip-rule="evenodd" d="M199.694 180.114L183.114 152.027C178.968 143.459 175.262 134.683 172.107 125.703C170.564 121.307 169.151 116.873 168.382 113.452C167.329 108.748 166.546 104.041 166.542 100.373L166.54 97.1971C166.534 96.458 166.591 95.7344 166.701 95.0224C167.612 89.141 172.209 84.3875 178.25 83.3829C184.075 82.4206 189.881 85.2227 192.753 90.3727L197.014 98.2709L234.157 167.073C273.252 219.231 313.063 262.374 356.485 301.304L365.895 430.983L251.05 495.302L221.619 446.113C212.595 431.031 205.02 415.131 198.994 398.622L183.098 355.074L160.821 311.581L168.314 247.166C165.069 246.271 162.127 244.14 160.294 240.837C158.373 237.372 158.106 233.23 159.571 229.55L166.196 212.876C168.046 208.222 170.615 203.919 173.787 200.114L173.839 199.665C181.573 192.265 190.935 186.575 199.694 180.114Z" fill="#FFC4B8"></path><path fill-rule="evenodd" clip-rule="evenodd" d="M168.299 322.471L168.097 322.585C162.547 325.782 155.457 324.122 151.906 318.783L133.539 291.154C129.937 285.738 130.621 278.544 135.17 273.895L137.535 271.485C138.104 270.904 138.708 270.394 139.342 269.951C145.53 265.611 154.458 267.691 157.896 274.841L170.383 300.86L173.189 306.695C175.939 312.424 173.807 319.3 168.299 322.471Z" fill="#FFC4B8"></path><path fill-rule="evenodd" clip-rule="evenodd" d="M281.642 404.751C279.365 408.688 277.396 413.09 275.968 417.956C275.726 418.777 275.035 419.177 274.347 419.177C273.592 419.177 272.844 418.698 272.692 417.773L269.839 400.393C269.839 400.393 264.794 400.982 257.518 400.982C238.687 400.982 204.894 397.031 204.838 368.679C204.832 365.75 187.624 367.471 183.097 355.053L167.927 325.438L166.792 323.221L168.098 322.568L168.299 322.455C173.808 319.283 175.94 312.408 173.189 306.679L170.383 300.843L163.691 286.9L164.565 279.387L168.315 247.151L168.778 247.261L169.271 247.39L169.763 247.458L170.098 247.514L170.38 247.542L170.835 247.605L171.299 247.614L171.885 247.634L171.995 247.628L172.413 247.636L173.1 247.568L173.332 247.556L173.491 247.53L173.987 247.48L174.555 247.355L174.767 247.32L174.973 247.263L175.539 247.138L175.995 246.977L176.174 246.927L176.423 246.826L177.049 246.605L177.401 246.43L177.54 246.373L177.821 246.22L178.499 245.883L178.756 245.711L178.85 245.66L179.148 245.45L179.87 244.968L180.042 244.819L180.091 244.785L180.371 244.533L181.144 243.86L181.242 243.75L181.246 243.747L181.33 243.651L182.303 242.557L200.575 219.159L215.926 214.39L215.917 214.369L215.927 214.377L203.836 188.163C208.322 175.489 218.342 168.343 234.076 166.906L234.158 167.058C263.266 205.893 292.772 239.73 323.869 270.543L337.25 297.721C308.869 324.388 288.675 361.946 281.642 404.751ZM169.058 300.929H168.821C164.306 300.892 159.885 298.76 157.082 294.831L139.34 269.947H139.341C140.75 268.96 142.299 268.305 143.895 267.966C144.743 267.786 145.603 267.695 146.461 267.692H146.565C151.154 267.711 155.672 270.215 157.896 274.837L170.383 300.857C169.941 300.901 169.5 300.924 169.058 300.929Z" fill="#F4A48D"></path><path d="M274.283 398.999L165.227 382.328C153.116 380.472 144.8 369.162 146.653 357.061L191.118 66.8481C192.972 54.7486 204.293 46.4403 216.407 48.2923L325.46 64.9678C337.575 66.8214 345.889 78.131 344.034 90.2302L299.571 380.445C297.717 392.546 286.397 400.851 274.283 398.999Z" fill="#9E3667"></path><path d="M267.586 397.977L158.53 381.3C146.419 379.45 138.103 368.137 139.956 356.039L184.42 65.8244C186.275 53.7252 197.595 45.4169 209.708 47.2686L318.763 63.9456C330.876 65.7961 339.192 77.1072 337.337 89.2068L292.873 379.42C291.02 391.521 279.697 399.829 267.586 397.977Z" fill="white"></path><path d="M335.453 101.536L294.35 369.81C293.072 378.15 282.696 383.48 274.354 382.205L154.226 363.835C145.878 362.558 140.155 354.767 141.432 346.426L182.535 78.1538C183.813 69.8125 191.608 64.0819 199.958 65.3582L320.083 83.7276C328.426 85.003 336.73 93.1953 335.453 101.536Z" fill="white"></path><path fill-rule="evenodd" clip-rule="evenodd" d="M292.286 73.5949C294.303 73.9038 296.19 72.5192 296.498 70.5038C296.808 68.4867 295.423 66.6034 293.406 66.2945C291.389 65.9872 289.502 67.3702 289.192 69.3873C288.884 71.4027 290.268 73.2878 292.286 73.5949ZM238.589 63.5958C239.64 63.7567 240.622 63.0357 240.784 61.9845C240.945 60.9331 240.223 59.9514 239.172 59.7903C238.119 59.6296 237.136 60.3509 236.977 61.4021C236.814 62.4531 237.537 63.4351 238.589 63.5958ZM233.401 60.8554C233.24 61.9051 232.257 62.6281 231.207 62.4673C230.154 62.3045 229.433 61.3244 229.595 60.2731C229.756 59.2218 230.739 58.5009 231.789 58.6617C232.841 58.8224 233.562 59.8045 233.401 60.8554ZM253.76 65.0061L271.419 67.7053C271.979 67.7922 272.503 67.4076 272.589 66.847C272.674 66.2864 272.289 65.7632 271.728 65.6779L254.07 62.9783C253.511 62.8933 252.987 63.2763 252.9 63.837C252.815 64.3972 253.198 64.9209 253.76 65.0061Z" fill="#DEEDF2"></path><path fill-rule="evenodd" clip-rule="evenodd" d="M274.268 398.937L165.211 382.265C153.1 380.409 144.784 369.1 146.638 356.999L191.103 66.7856C192.956 54.6861 204.277 46.3778 216.392 48.2298L325.444 64.9053C337.559 66.7589 345.874 78.0685 344.019 90.1677L299.555 380.383C297.701 392.484 286.381 400.789 274.268 398.937Z" fill="#9E3667"></path><path fill-rule="evenodd" clip-rule="evenodd" d="M267.571 397.915L158.514 381.238C146.403 379.387 138.087 368.075 139.94 355.977L184.404 65.7619C186.259 53.6627 197.58 45.3544 209.693 47.2061L318.747 63.8831C330.86 65.7336 339.177 77.0447 337.321 89.1443L292.858 379.357C291.004 391.458 279.682 399.766 267.571 397.915Z" fill="white"></path><path d="M335.437 101.473L294.334 369.748C293.056 378.087 282.681 383.418 274.338 382.142L154.21 363.773C145.863 362.496 140.139 354.705 141.417 346.364L182.52 78.0913C183.798 69.75 191.593 64.0194 199.942 65.2957L320.067 83.6651C328.41 84.9405 336.715 93.1328 335.437 101.473Z" fill="white"></path><path fill-rule="evenodd" clip-rule="evenodd" d="M295.695 360.861L294.333 369.741C294.262 370.188 294.17 370.624 294.05 371.049C291.953 378.63 282.232 383.346 274.339 382.138L154.211 363.766C146.853 362.642 141.526 356.454 141.253 349.286C141.216 348.322 141.264 347.344 141.417 346.357L142.777 337.477L295.695 360.861Z" fill="#CEDEE7"></path><path d="M295.695 360.861L294.334 369.741C294.263 370.188 294.171 370.624 294.05 371.049L293.97 371.038L294.329 368.698L141.576 345.341L142.778 337.477L295.695 360.861Z" fill="#EC0000"></path><path fill-rule="evenodd" clip-rule="evenodd" d="M252.636 304.075L292.584 310.179L286.463 350.096L246.516 343.993L252.636 304.075ZM206.78 297.062L246.726 303.167L240.606 343.084L200.661 336.981L206.78 297.062ZM160.924 290.05L200.87 296.154L194.752 336.071L154.804 329.968L160.924 290.05Z" fill="#CEDEE7"></path><path fill-rule="evenodd" clip-rule="evenodd" d="M292.271 73.5324C294.288 73.8413 296.174 72.4567 296.482 70.4413C296.792 68.4242 295.407 66.5409 293.39 66.232C291.373 65.9247 289.487 67.3077 289.177 69.3248C288.868 71.3402 290.252 73.2253 292.271 73.5324ZM238.573 63.5333C239.624 63.6942 240.607 62.9732 240.768 61.922C240.929 60.8706 240.208 59.8889 239.156 59.7278C238.104 59.5671 237.121 60.2884 236.961 61.3396C236.798 62.3906 237.521 63.3726 238.573 63.5333ZM233.385 60.7929C233.224 61.8427 232.242 62.5656 231.191 62.4048C230.139 62.242 229.417 61.2619 229.579 60.2106C229.74 59.1593 230.723 58.4384 231.773 58.5992C232.825 58.7599 233.547 59.742 233.385 60.7929ZM253.745 64.9436L271.403 67.6428C271.964 67.7297 272.487 67.3451 272.573 66.7845C272.658 66.2239 272.273 65.7007 271.712 65.6154L254.054 62.9158C253.495 62.8308 252.971 63.2138 252.884 63.7745C252.799 64.3347 253.182 64.8584 253.745 64.9436Z" fill="#DEEDF2"></path><path d="M335.436 101.472L328.895 144.165L175.978 120.783L182.519 78.0899C183.797 69.7486 191.592 64.0172 199.941 65.2943L320.066 83.6637C328.409 84.9391 336.714 93.1309 335.436 101.472Z" fill="#EC0000"></path><path fill-rule="evenodd" clip-rule="evenodd" d="M319.485 205.663L166.571 182.281L175.976 120.899L328.888 144.281L319.485 205.663Z" fill="#DEEDF2"></path><path fill-rule="evenodd" clip-rule="evenodd" d="M311.452 172.906C309.943 182.76 300.722 189.526 290.858 188.017C280.994 186.509 274.221 177.298 275.73 167.444C277.242 157.59 286.462 150.824 296.327 152.332C306.191 153.84 312.962 163.052 311.452 172.906Z" fill="#CEDEE7"></path><path fill-rule="evenodd" clip-rule="evenodd" d="M267.716 164.471L185.79 151.945L185.324 154.986L267.25 167.514L267.716 164.471Z" fill="white"></path><path fill-rule="evenodd" clip-rule="evenodd" d="M319.532 205.367L310.127 266.75L157.216 243.366L161.479 215.531L162.86 206.5L166.621 181.985L191.557 185.8L194.617 186.27L200.934 187.232L201.224 187.275L319.532 205.367Z" fill="#9BC3D3"></path><path fill-rule="evenodd" clip-rule="evenodd" d="M301.856 235.54C300.347 245.394 291.126 252.161 281.262 250.652C271.399 249.143 264.625 239.932 266.134 230.078C267.645 220.224 276.866 213.458 286.729 214.965C296.595 216.474 303.366 225.686 301.856 235.54Z" fill="#DEEDF2"></path><path fill-rule="evenodd" clip-rule="evenodd" d="M242.616 223.576L186.42 214.984L185.954 218.026L242.151 226.619L242.616 223.576Z" fill="#DEEDF2"></path><path fill-rule="evenodd" clip-rule="evenodd" d="M196.343 202.034C186.877 208.898 173.462 212.251 162.092 212.211L163.392 204.003L166.927 181.727L189.585 185.318L201.26 188.247L208.809 189.439L209.048 189.108L209.154 189.495L213.927 206.579L196.345 202.034L196.343 202.034Z" fill="#34466B"></path><path fill-rule="evenodd" clip-rule="evenodd" d="M200.478 198.803C179.7 206.403 155.86 198.152 144.531 178.31C131.896 156.175 139.613 127.998 161.77 115.375C183.926 102.752 212.13 110.461 224.766 132.595C236.092 152.44 231.063 177.138 213.936 191.135L213.865 206.631L200.478 198.803Z" fill="white"></path><path fill-rule="evenodd" clip-rule="evenodd" d="M197.413 155.792C198.118 153.189 198.005 150.387 197.007 147.786L195.672 144.304L190.33 130.374C189.822 129.046 189.543 127.667 189.488 126.287L188.996 126.894L188.996 126.892C186.092 130.481 185.319 135.344 186.972 139.654L186.973 139.657L192.513 154.109L192.499 154.105C193.9 158.282 193.078 162.904 190.288 166.349L189.797 166.956C189.741 165.576 189.464 164.196 188.954 162.869L189.453 164.174L184.949 152.42L180.821 141.66L180.942 141.973C180.434 140.646 180.156 139.265 180.099 137.885L179.607 138.491C176.703 142.079 175.931 146.943 177.582 151.253L177.584 151.254L177.757 151.708L181.589 161.702L181.59 161.704L182.926 165.184C184.577 169.494 183.805 174.36 180.902 177.949L180.41 178.556C180.353 177.175 180.075 175.794 179.565 174.466L180.067 175.771L172.89 157.055L172.887 157.053C172.234 155.343 171.962 153.548 172.051 151.778C160.69 152.523 152.152 156.912 151.119 163.422C149.722 172.235 162.602 181.596 179.89 184.332C197.175 187.067 212.322 182.14 213.719 173.327C214.751 166.818 207.988 160.008 197.413 155.792Z" fill="#EC0000"></path><path fill-rule="evenodd" clip-rule="evenodd" d="M146.582 230.258L143.413 232.752C137.302 237.564 135.393 245.989 138.83 252.961L156.352 288.512C159.738 295.383 167.885 298.442 174.963 295.503L175.214 295.399C182.23 292.484 185.813 284.659 183.432 277.451L170.193 237.357C166.921 227.447 154.786 223.798 146.582 230.258Z" fill="#FFC4B8"></path><path fill-rule="evenodd" clip-rule="evenodd" d="M281.256 469.401L279.203 465.164C276.933 460.486 275.327 455.547 274.426 450.476C273.507 445.411 273.291 440.224 273.792 435.045C276.026 411.842 281.553 389.18 290.115 367.711C297.433 349.374 306.961 331.912 318.567 315.725L320.926 312.431C326.339 304.872 328.58 295.499 327.17 286.309L325.802 277.469C324.094 266.35 323.86 255.06 325.123 243.882C325.123 243.882 327.455 209.109 340.991 185.815C342.87 182.583 345.836 180.242 349.105 178.76C352.377 177.277 356.068 176.728 359.768 177.301C361.223 177.525 362.536 178.095 363.64 178.924C365.982 180.661 367.384 183.534 367.118 186.628L364.568 217.011L364.503 217.797L378.89 311.901C380.577 322.947 380.475 334.183 378.594 345.193L371.538 403.422L365.596 452.389L365.599 452.394L399.474 511.013L422.865 551.494H283.517L251.368 495.867L250.834 494.941L249.608 492.817L280.344 470.077L281.254 469.402L281.256 469.401Z" fill="#FFC4B8"></path></svg>