<svg xmlns="http://www.w3.org/2000/svg" width="64" height="65" viewBox="0 0 64 65" fill="none"><path fill-rule="evenodd" clip-rule="evenodd" d="M50.8378 13.6873C53.4774 13.6873 55.6504 15.7568 55.6504 18.3541V40.3513L59.5879 40.354C60.3128 40.354 60.9004 40.9509 60.9004 41.6873V46.073C60.9004 48.8387 58.5138 51.0207 55.6349 51.0207H11.0408C8.16159 51.0207 5.77539 48.8389 5.77539 46.073V41.6873C5.77539 40.9509 6.36302 40.354 7.08789 40.354L11.0254 40.3513V18.3541C11.0254 15.757 13.1988 13.6873 15.838 13.6873H50.8378ZM28.3189 43.018L8.40039 43.0206V46.073C8.40039 47.2998 9.55331 48.354 11.0408 48.354H55.6349C57.1221 48.354 58.2754 47.2996 58.2754 46.073V43.0206L38.3543 43.018L38.3568 43.1084C38.3568 43.8448 37.7692 44.4417 37.0443 44.4417H29.6315C28.9066 44.4417 28.319 43.8448 28.319 43.1084L28.3189 43.018ZM15.838 16.354H50.8378C52.0641 16.354 53.0254 17.2694 53.0254 18.3541V40.3513H13.6504V18.3541C13.6504 17.2697 14.612 16.354 15.838 16.354Z" fill="#9E3667"></path></svg>