<svg xmlns="http://www.w3.org/2000/svg" width="211" height="37" viewBox="0 0 211 37" fill="none"><path d="M117.235 3.95526H106.846V12.2003H117.132C117.087 12.9607 117 13.6633 116.865 14.3121H106.846V24.9996H104.506V1.81445H117.499C117.454 2.59556 117.367 3.31054 117.231 3.95939L117.235 3.95526Z" fill="#E20613"></path><path d="M123.213 4.29451C122.924 4.58381 122.553 4.72846 122.109 4.72846C121.664 4.72846 121.289 4.58381 120.988 4.29451C120.687 4.00521 120.539 3.63739 120.539 3.18691C120.539 2.73644 120.687 2.36448 120.988 2.06278C121.289 1.76109 121.66 1.6123 122.109 1.6123C122.558 1.6123 122.92 1.76522 123.213 2.06278C123.501 2.36448 123.645 2.74057 123.645 3.18691C123.645 3.63326 123.501 4.00108 123.213 4.29451ZM120.976 25.0041V7.71237H123.278V25.0041H120.976Z" fill="#E20613"></path><path d="M134.133 7.30762C136.872 7.30762 138.813 7.84902 139.962 8.93182C141.107 10.0146 141.684 11.6388 141.684 13.8086V25.0003H139.344V14.2094C139.344 12.4902 138.965 11.2421 138.207 10.4734C137.449 9.70466 136.069 9.31617 134.067 9.31617C132.753 9.31617 131.418 9.47322 130.059 9.78318V24.9961H127.756V8.24577C130.117 7.62171 132.242 7.30762 134.137 7.30762H134.133Z" fill="#E20613"></path><path d="M153.84 7.30687C155.933 7.30687 157.848 7.62096 159.587 8.24502V24.9995H157.449L157.35 23.1893C156.061 24.6648 154.388 25.4004 152.341 25.4004C150.071 25.4004 148.283 24.611 146.981 23.0364C145.68 21.4618 145.029 19.2797 145.029 16.4859C145.029 13.5144 145.77 11.2413 147.249 9.66671C148.728 8.09211 150.928 7.30273 153.844 7.30273L153.84 7.30687ZM152.938 23.458C154.606 23.458 156.056 22.8752 157.28 21.7139V9.71631C156.213 9.44767 155.064 9.31542 153.84 9.31542C149.519 9.31542 147.36 11.7042 147.36 16.4859C147.36 18.6515 147.834 20.3584 148.782 21.5982C149.729 22.8381 151.113 23.458 152.938 23.458Z" fill="#E20613"></path><path d="M170.441 7.30762C173.181 7.30762 175.121 7.84902 176.27 8.93182C177.415 10.0146 177.992 11.6388 177.992 13.8086V25.0003H175.652V14.2094C175.652 12.4902 175.273 11.2421 174.515 10.4734C173.757 9.70466 172.377 9.31617 170.375 9.31617C169.061 9.31617 167.727 9.47322 166.367 9.78318V24.9961H164.064V8.24577C166.425 7.62171 168.55 7.30762 170.445 7.30762H170.441Z" fill="#E20613"></path><path d="M189.312 25.4051C186.841 25.4051 184.872 24.6157 183.401 23.0411C181.93 21.4665 181.197 19.2595 181.197 16.4244C181.197 13.5893 181.943 11.3576 183.434 9.74163C184.925 8.12156 187.108 7.31152 189.98 7.31152C191.405 7.31152 192.727 7.58016 193.955 8.11743C193.934 8.76628 193.831 9.4234 193.654 10.0929C192.542 9.58045 191.314 9.32421 189.98 9.32421C187.887 9.32421 186.293 9.93174 185.205 11.1509C184.114 12.3701 183.57 14.1059 183.57 16.3624C183.57 18.619 184.114 20.4415 185.205 21.6235C186.297 22.8096 187.73 23.4006 189.514 23.4006C191.117 23.4006 192.567 22.9543 193.856 22.0616C193.79 22.7311 193.679 23.4585 193.522 24.2396C192.431 25.0207 191.03 25.4133 189.312 25.4133V25.4051Z" fill="#E20613"></path><path d="M210.486 15.081C210.486 15.7753 210.441 16.42 210.354 17.0234H197.864C197.996 19.1022 198.597 20.6809 199.668 21.7637C200.735 22.8465 202.239 23.3879 204.179 23.3879C206.251 23.3879 208.121 22.9085 209.79 21.9456C209.699 22.7928 209.58 23.5202 209.423 24.1236C207.952 24.975 206.193 25.3965 204.146 25.3965C201.341 25.3965 199.207 24.603 197.749 23.016C196.29 21.429 195.561 19.1725 195.561 16.2464C195.561 13.589 196.2 11.4317 197.481 9.77853C198.762 8.12539 200.702 7.29883 203.31 7.29883C205.716 7.29883 207.512 8.01794 208.702 9.4603C209.893 10.9027 210.49 12.7707 210.49 15.0727L210.486 15.081ZM203.207 9.28259C201.559 9.28259 200.29 9.79093 199.401 10.8076C198.511 11.8243 197.996 13.2501 197.864 15.081H208.15V14.9487C208.15 13.2294 207.726 11.8532 206.881 10.8283C206.033 9.79919 204.809 9.28672 203.207 9.28672V9.28259Z" fill="#E20613"></path><path d="M7.2805 25.538C4.54111 25.538 2.25897 25.1124 0.434082 24.2651C0.499992 23.0831 0.710081 21.9549 1.06847 20.8803C2.93867 21.7524 4.97777 22.1863 7.18164 22.1863C10.4112 22.1863 12.026 21.1944 12.026 19.2024C12.026 18.2643 11.7047 17.5038 11.058 16.9252C10.4112 16.3425 9.26605 15.6978 7.61829 14.9828L5.91699 14.2471C4.17861 13.4867 2.86452 12.5981 1.97473 11.5815C1.08495 10.5648 0.640051 9.21749 0.640051 7.54369C0.640051 5.5806 1.31975 4.04319 2.67915 2.93559C4.03855 1.83212 6.04057 1.27832 8.68933 1.27832C10.9138 1.27832 12.9529 1.60068 14.8025 2.24954C14.7119 3.45632 14.4894 4.57219 14.1352 5.60126C12.3968 4.95241 10.5719 4.63005 8.65638 4.63005C7.23107 4.63005 6.16827 4.88628 5.46797 5.40289C4.76768 5.91536 4.41753 6.63034 4.41753 7.54783C4.41753 8.37439 4.71413 9.07284 5.3032 9.64317C5.89227 10.2135 6.81089 10.7673 8.05907 11.3004L9.86336 12.0733C12.0013 12.9908 13.5379 13.9785 14.473 15.0407C15.4081 16.1028 15.8777 17.4377 15.8777 19.0454C15.8777 21.0333 15.1362 22.6161 13.6573 23.7857C12.1743 24.9594 10.057 25.5463 7.29286 25.5463L7.2805 25.538Z" fill="#E20613"></path><path d="M20.9075 5.53485C20.2401 5.53485 19.6881 5.31581 19.2556 4.88186C18.8231 4.44792 18.6047 3.90651 18.6047 3.25766C18.6047 2.6088 18.8231 2.0674 19.2556 1.63346C19.6881 1.19951 20.2401 0.980469 20.9075 0.980469C21.5748 0.980469 22.0939 1.19951 22.5264 1.63346C22.9589 2.0674 23.1773 2.61294 23.1773 3.25766C23.1773 3.90238 22.9589 4.44792 22.5264 4.88186C22.0939 5.31581 21.5501 5.53485 20.9075 5.53485ZM19.0702 25.0046V7.71285H22.7447V25.0046H19.0702Z" fill="#E20613"></path><path d="M45.1584 7.30762C47.873 7.30762 49.805 7.84902 50.9543 8.93182C52.0995 10.0146 52.6721 11.6182 52.6721 13.7383V24.9961H48.9976V14.2714C48.9976 12.9779 48.6763 12.0149 48.0296 11.3909C47.3828 10.7668 46.3159 10.4527 44.8247 10.4527C43.6012 10.4527 42.3984 10.6965 41.2161 11.1883C41.4385 11.8827 41.5498 12.7299 41.5498 13.7342V24.992H37.8753V14.2342C37.8753 12.9613 37.5416 12.0108 36.8743 11.3867C36.2069 10.7627 35.1029 10.4486 33.5664 10.4486C32.4748 10.4486 31.4284 10.5478 30.4274 10.7503V24.992H26.7529V8.24577C29.3152 7.62171 31.7086 7.30762 33.933 7.30762C36.3387 7.30762 38.1513 7.74156 39.3789 8.61359C41.3603 7.74156 43.2882 7.30762 45.1584 7.30762Z" fill="#E20613"></path><path d="M62.9251 7.30762C69.0713 7.30762 72.1443 10.2585 72.1443 16.156C72.1443 19.1275 71.3699 21.413 69.8251 23.0082C68.2762 24.6077 66.0435 25.4053 63.127 25.4053C62.0354 25.4053 61.0549 25.2813 60.1899 25.0375V31.4392H56.5154V8.24577C58.5421 7.62171 60.6801 7.30762 62.9293 7.30762H62.9251ZM62.8922 22.2519C66.5873 22.2519 68.4369 20.2847 68.4369 16.3544C68.4369 12.4241 66.509 10.4568 62.6574 10.4568C61.8994 10.4568 61.0755 10.5354 60.1858 10.6924V21.8841C61.1209 22.128 62.023 22.2519 62.8922 22.2519Z" fill="#E20613"></path><path d="M75.2505 25.0009V2.08024C76.4987 1.72481 77.7221 1.54297 78.925 1.54297V25.0009H75.2505Z" fill="#E20613"></path><path d="M97.594 14.9825C97.594 15.9 97.5281 16.8464 97.3922 17.83H85.6684C86.1339 20.7809 87.9629 22.2522 91.1472 22.2522C93.1945 22.2522 95.1554 21.8265 97.0256 20.9793C96.8484 22.2522 96.6589 23.368 96.4571 24.331C94.9 25.046 93.0957 25.4014 91.0483 25.4014C88.0206 25.4014 85.7426 24.6079 84.2184 23.0209C82.6942 21.4339 81.9321 19.1773 81.9321 16.2513C81.9321 13.5691 82.5954 11.4076 83.9177 9.76688C85.2441 8.12614 87.2956 7.30371 90.0803 7.30371C92.5725 7.30371 94.4509 8.01869 95.7074 9.44865C96.9638 10.8786 97.594 12.7219 97.594 14.9784V14.9825ZM89.8784 10.3909C87.3409 10.3909 85.9156 11.8416 85.6025 14.7469H93.8866C93.8866 13.3624 93.5364 12.2879 92.8361 11.5316C92.1359 10.7712 91.1513 10.3909 89.8784 10.3909Z" fill="#E20613"></path><path d="M166.219 31.9679C166.207 31.6497 166.116 31.3315 165.951 31.0463L164.501 28.5294C164.39 28.3352 164.316 28.1326 164.271 27.9219L164.209 28.0293C163.85 28.6534 163.85 29.4221 164.209 30.0462L165.366 32.063C165.725 32.687 165.725 33.4557 165.366 34.0798L165.304 34.1872C165.263 33.9765 165.185 33.7698 165.074 33.5797L164.011 31.7365L163.331 30.5586C163.22 30.3644 163.146 30.1619 163.101 29.9511L163.039 30.0585C162.68 30.6785 162.68 31.4472 163.039 32.0671L164.2 34.0881C164.559 34.7121 164.559 35.4808 164.2 36.1049L164.139 36.2123C164.097 36.0016 164.019 35.7949 163.908 35.6048L162.458 33.0879C162.264 32.749 162.174 32.3688 162.19 31.9927C160.637 32.3977 159.566 33.2615 159.566 34.2616C159.566 35.6544 161.638 36.7785 164.196 36.7785C166.754 36.7785 168.827 35.6503 168.827 34.2616C168.827 33.2615 167.755 32.3977 166.202 31.9886M170.573 36.2909C170.59 35.9313 170.643 35.6875 170.738 35.4106C171.224 35.6379 171.85 35.7495 172.328 35.7495C173.135 35.7495 173.589 35.4891 173.589 34.9725C173.589 34.4559 173.259 34.2327 172.439 33.8732L171.994 33.683C171.179 33.3235 170.623 32.8647 170.623 31.939C170.623 30.943 171.311 30.3065 172.719 30.3065C173.284 30.3065 173.815 30.385 174.309 30.5586C174.285 30.9058 174.223 31.1785 174.136 31.4306C173.667 31.2571 173.111 31.1785 172.711 31.1785C171.953 31.1785 171.607 31.4761 171.607 31.939C171.607 32.4019 171.945 32.654 172.555 32.9143L173.024 33.1127C174.128 33.5839 174.59 34.0798 174.59 34.927C174.59 35.9313 173.832 36.6174 172.353 36.6174C171.64 36.6174 171.059 36.514 170.569 36.2867M179.257 32.1167V36.481H178.379L178.33 35.9561C178.087 36.3405 177.712 36.5843 177.102 36.5843C175.953 36.5843 175.191 35.7453 175.191 34.2823C175.191 32.8193 176.007 31.8729 177.617 31.8729C178.243 31.8729 178.754 31.9431 179.261 32.1167M178.305 35.485V32.7449C178.108 32.7077 177.889 32.6912 177.617 32.6912C176.625 32.6912 176.167 33.3028 176.167 34.2782C176.167 35.1667 176.526 35.7949 177.374 35.7949C177.749 35.7949 178.054 35.6751 178.305 35.4808M184.159 33.5425V36.4727H183.203V33.7078C183.203 33.0177 182.977 32.687 182.021 32.687C181.794 32.687 181.527 32.7118 181.263 32.7573V36.4727H180.307V32.1084C180.917 31.9597 181.584 31.8646 182.046 31.8646C183.644 31.8646 184.159 32.4845 184.159 33.5384M186.812 35.7536C187.088 35.7536 187.351 35.704 187.557 35.6213C187.533 35.8817 187.496 36.1793 187.446 36.4314C187.187 36.5347 186.907 36.5719 186.639 36.5719C185.708 36.5719 185.119 36.1462 185.119 35.0799V30.5008C185.415 30.4057 185.778 30.3602 186.074 30.3602V32.0092H187.586C187.57 32.3068 187.541 32.5754 187.5 32.8275H186.074V34.9642C186.074 35.5304 186.35 35.7495 186.812 35.7495M191.94 32.1043V36.4686H191.063L191.009 35.9437C190.766 36.3281 190.392 36.5719 189.782 36.5719C188.633 36.5719 187.87 35.7329 187.87 34.2699C187.87 32.8069 188.686 31.8605 190.297 31.8605C190.923 31.8605 191.434 31.9307 191.94 32.1043ZM190.985 35.4726V32.7325C190.787 32.6953 190.569 32.6788 190.297 32.6788C189.304 32.6788 188.847 33.2904 188.847 34.2658C188.847 35.1543 189.205 35.7825 190.054 35.7825C190.429 35.7825 190.733 35.6627 190.985 35.4684M196.838 33.5301V36.4603H195.883V33.6954C195.883 33.0053 195.656 32.6746 194.7 32.6746C194.474 32.6746 194.206 32.6994 193.942 32.7449V36.4603H192.987V32.096C193.596 31.9473 194.264 31.8522 194.725 31.8522C196.323 31.8522 196.838 32.4721 196.838 33.526M201.691 30.352V36.4603H200.814L200.76 35.9024C200.517 36.3115 200.142 36.5636 199.516 36.5636C198.367 36.5636 197.605 35.7247 197.605 34.2616C197.605 32.7986 198.42 31.8522 200.031 31.8522C200.282 31.8522 200.517 31.877 200.744 31.9225V30.4842C201.04 30.3809 201.378 30.352 201.691 30.352ZM200.744 35.4478V32.7614C200.492 32.7077 200.233 32.6746 199.977 32.6746C199.03 32.6746 198.577 33.2656 198.577 34.2616C198.577 35.1502 198.935 35.7784 199.784 35.7784C200.167 35.7784 200.48 35.6461 200.739 35.4478M206.494 34.5923H203.442C203.561 35.3692 204.014 35.7453 204.867 35.7453C205.39 35.7453 205.917 35.6337 206.395 35.4147C206.362 35.6668 206.309 35.9974 206.247 36.2867C205.815 36.4892 205.353 36.5636 204.838 36.5636C203.24 36.5636 202.465 35.6751 202.465 34.1831C202.465 32.8854 203.067 31.8522 204.587 31.8522C205.95 31.8522 206.544 32.749 206.544 33.8484C206.544 34.117 206.527 34.336 206.49 34.5881M203.421 33.7864H205.576C205.576 33.0714 205.192 32.654 204.533 32.654C203.874 32.654 203.499 33.0466 203.421 33.7864ZM209.839 31.8853C209.839 32.1746 209.802 32.5217 209.753 32.7036C209.526 32.6788 209.3 32.6664 209.032 32.6664C208.797 32.6664 208.562 32.6829 208.327 32.7201V36.4562H207.372V32.0919C207.779 31.9514 208.467 31.8481 209.007 31.8481C209.304 31.8481 209.633 31.8563 209.843 31.8853" fill="#E20613"></path></svg>