<?xml version="1.0" encoding="utf-8"?>
<!-- Generator: Adobe Illustrator 21.0.0, SVG Export Plug-In . SVG Version: 6.00 Build 0)  -->
<svg version="1.1" id="Layer_1" xmlns="http://www.w3.org/2000/svg" xmlns:xlink="http://www.w3.org/1999/xlink" x="0px" y="0px"
	 viewBox="0 0 28 28" style="enable-background:new 0 0 28 28;" xml:space="preserve">
<style type="text/css">
	.st0{fill:#166FB2;}
</style>
<title>Blurb</title>
<g>
	<path class="st0" d="M24.4,23H3.7c-0.6,0-1.1-0.5-1.1-1.1l0,0V8.7c0-0.6,0.5-1.1,1.1-1.1c0,0,0,0,0,0h2v0.9h-2
		c-0.1,0-0.2,0.1-0.2,0.2l0,0v13.2c0,0.1,0.1,0.2,0.2,0.2c0,0,0,0,0,0h20.7c0.1,0,0.2-0.1,0.2-0.2l0,0V8.7c0-0.1-0.1-0.2-0.2-0.2
		l0,0H20V7.6h4.3c0.6,0,1.1,0.5,1.1,1.1l0,0v13.2C25.4,22.5,24.9,23,24.4,23z"/>
	<rect x="12.8" y="7.6" class="st0" width="1.2" height="0.9"/>
	<path class="st0" d="M14.4,12.5h3.5c0.3,0,0.5,0.2,0.5,0.5l0,0c0,0.3-0.2,0.5-0.5,0.5h-3.5c-0.3,0-0.5-0.2-0.5-0.5l0,0
		C13.9,12.7,14.1,12.5,14.4,12.5z"/>
	<path class="st0" d="M14.4,14.6h7.9c0.3,0,0.5,0.2,0.5,0.5l0,0c0,0.3-0.2,0.5-0.5,0.5h-7.9c-0.3,0-0.5-0.2-0.5-0.5l0,0
		C13.9,14.8,14.1,14.6,14.4,14.6z"/>
	<path class="st0" d="M14.4,16.8h7.9c0.3,0,0.5,0.2,0.5,0.5v0c0,0.3-0.2,0.5-0.5,0.5h-7.9c-0.3,0-0.5-0.2-0.5-0.5v0
		C13.9,17,14.1,16.8,14.4,16.8z"/>
	<path class="st0" d="M14.5,19.1h3.5c0.3,0,0.5,0.2,0.5,0.5v0c0,0.3-0.2,0.5-0.5,0.5h-3.5c-0.3,0-0.5-0.2-0.5-0.5v0
		C14,19.3,14.2,19.1,14.5,19.1z"/>
	<path class="st0" d="M11.9,5.9V19H6.6V5.9H11.9 M12.2,5H6.3C5.9,5,5.6,5.3,5.6,5.6l0,0v13.7c0,0.3,0.3,0.6,0.6,0.6h0h5.9
		c0.3,0,0.6-0.3,0.6-0.6l0,0V5.6C12.8,5.3,12.5,5,12.2,5z"/>
	<path class="st0" d="M17,5.9c1.2,0,2.1,1,2.1,2.1s-1,2.1-2.1,2.1s-2.1-1-2.1-2.1S15.8,5.9,17,5.9L17,5.9 M17,5
		c-1.7,0-3.1,1.3-3.1,3c0,1.7,1.3,3.1,3,3.1s3.1-1.3,3.1-3c0,0,0,0,0,0C20,6.4,18.7,5,17,5z"/>
	<circle class="st0" cx="19.6" cy="13" r="0.5"/>
</g>
</svg>
