<svg xmlns="http://www.w3.org/2000/svg" width="159" height="49" viewBox="0 0 159 49" fill="none"><path d="M41.1216 48.9736C39.2206 48.9736 37.7524 48.3688 36.7147 47.1603C35.6781 45.9507 35.1593 44.3113 35.1593 42.2421C35.1593 40.173 35.6925 38.4559 36.7609 37.2774C37.8282 36.0988 39.3314 35.5106 41.2693 35.5106C42.3797 35.5106 43.2994 35.6597 44.0274 35.959C44.0151 36.3453 43.9413 36.7378 43.8049 37.1376C43.0144 36.8383 42.1695 36.6892 41.2682 36.6892C39.7989 36.6892 38.6362 37.1635 37.778 38.11C36.9198 39.0576 36.4912 40.4163 36.4912 42.1862C36.4912 43.9561 36.9198 45.3179 37.778 46.31C38.6362 47.3011 39.8051 47.7972 41.2867 47.7972C42.2741 47.7972 43.1497 47.6221 43.9156 47.2731C43.9033 47.6346 43.8346 48.0716 43.7116 48.5822C42.9959 48.8442 42.1316 48.9747 41.1195 48.9747L41.1216 48.9736Z" fill="white"></path><path d="M49.8421 48.9364C48.4097 48.9364 47.3116 48.4787 46.5467 47.5622C45.7808 46.6456 45.3983 45.4526 45.3983 43.981C45.3983 42.3727 45.7992 41.1134 46.6021 40.2031C47.4039 39.2928 48.5215 38.8381 49.9528 38.8381C51.3842 38.8381 52.4833 39.2938 53.2482 40.2031C54.0131 41.1134 54.3966 42.3106 54.3966 43.7936C54.3966 45.4019 53.9988 46.6612 53.2021 47.5715C52.4054 48.4818 51.2858 48.9364 49.8421 48.9364ZM49.9159 47.8148C50.9648 47.8148 51.7584 47.469 52.2947 46.7772C52.832 46.0854 53.1006 45.1222 53.1006 43.8878C53.1006 42.6533 52.8258 41.6747 52.2762 40.9891C51.7267 40.3035 50.9402 39.9607 49.9159 39.9607C48.8916 39.9607 48.0549 40.3066 47.5187 40.9984C46.9824 41.6902 46.7128 42.6533 46.7128 43.8878C46.7128 45.1222 46.9876 46.132 47.5372 46.8051C48.0857 47.4783 48.8793 47.8148 49.9159 47.8148Z" fill="white"></path><path d="M20.9838 13.8619C20.9396 12.8483 20.6594 11.8424 20.1402 10.9334L15.5566 2.91408C15.2064 2.30194 14.9658 1.64673 14.8318 0.974609L14.6399 1.3099C13.5054 3.29398 13.5054 5.74101 14.6399 7.72508L18.3067 14.1403C19.4412 16.1243 19.4412 18.5714 18.3067 20.5554L18.1149 20.8907C17.9809 20.2186 17.7387 19.5634 17.39 18.9513L14.0323 13.079L11.8883 9.32926C11.5395 8.71712 11.2974 8.06192 11.1634 7.38979L10.9716 7.72508C9.84166 9.70455 9.83709 12.1377 10.9609 14.1203L14.6399 20.557C15.7744 22.5411 15.7744 24.9881 14.6399 26.9722L14.448 27.3075C14.314 26.6353 14.0719 25.9801 13.7232 25.368L9.13966 17.3486C8.52446 16.2735 8.24428 15.0631 8.29605 13.8634C3.38664 15.1585 0 17.9069 0 21.0907C0 25.5203 6.554 29.11 14.6399 29.11C22.7258 29.11 29.2798 25.5203 29.2798 21.0907C29.2798 17.9069 25.8932 15.1569 20.9853 13.8619M34.8075 27.5551C34.8623 26.4169 35.0267 25.6387 35.3298 24.7497C36.8693 25.471 38.8504 25.8325 40.3625 25.8325C42.9208 25.8325 44.3491 25.0004 44.3491 23.3608C44.3491 21.7213 43.3045 20.9999 40.7189 19.8618L39.3164 19.2512C36.7307 18.1115 34.9719 16.6396 34.9719 13.6958C34.9719 10.5305 37.1449 8.5018 41.599 8.5018C43.3867 8.5018 45.0633 8.7525 46.6318 9.30773C46.5495 10.4182 46.3562 11.2795 46.0821 12.0839C44.5974 11.5287 42.8386 11.2795 41.5716 11.2795C39.1793 11.2795 38.0799 12.2239 38.0799 13.6958C38.0799 15.1677 39.1519 15.9736 41.0782 16.8072L42.5629 17.4455C46.0546 18.9451 47.5119 20.5293 47.5119 23.2224C47.5119 26.4169 45.1197 28.6102 40.4448 28.6102C38.1895 28.6102 36.347 28.2764 34.8075 27.5551ZM62.2782 14.2787V28.1672H59.5007L59.3362 26.5C58.5657 27.7227 57.3825 28.4994 55.4577 28.4994C51.829 28.4994 49.4093 25.834 49.4093 21.1676C49.4093 16.5012 51.995 13.502 57.081 13.502C59.0606 13.502 60.6824 13.7235 62.2782 14.2787ZM59.254 25.0004V16.2797C58.6221 16.1689 57.9338 16.1136 57.0825 16.1136C53.9472 16.1136 52.4914 18.0592 52.4914 21.1691C52.4914 24.0022 53.6182 26.0017 56.3135 26.0017C57.4967 26.0017 58.4591 25.6125 59.2555 25.0019M77.7618 18.8359V28.1688H74.7375V19.365C74.7375 17.1702 74.0218 16.1151 70.9976 16.1151C70.2834 16.1151 69.4307 16.1982 68.6053 16.3366V28.1688H65.5811V14.2772C67.5059 13.805 69.6226 13.5004 71.0798 13.5004C76.14 13.5004 77.7618 15.4707 77.7618 18.8313M86.1492 25.8863C87.0293 25.8863 87.8547 25.7202 88.514 25.4695C88.4318 26.3031 88.3222 27.2475 88.1562 28.0534C87.3324 28.3872 86.4522 28.4979 85.5994 28.4979C82.6575 28.4979 80.7875 27.1383 80.7875 23.7484V9.16777C81.7225 8.86324 82.8767 8.72327 83.8132 8.72327V13.9726H88.5978C88.543 14.917 88.4607 15.7783 88.3237 16.5842H83.8132V23.3885C83.8132 25.1942 84.6919 25.8878 86.1507 25.8878M102.376 14.2787V28.1672H99.5983L99.4338 26.5C98.6633 27.7227 97.4816 28.4994 95.5568 28.4994C91.9266 28.4994 89.5069 25.834 89.5069 21.1676C89.5069 16.5012 92.0925 13.502 97.1786 13.502C99.1582 13.502 100.78 13.7235 102.376 14.2787ZM99.3501 25.0004V16.2797C98.7181 16.1689 98.0313 16.1136 97.1786 16.1136C94.0432 16.1136 92.5859 18.0592 92.5859 21.1691C92.5859 24.0022 93.7143 26.0017 96.4096 26.0017C97.5913 26.0017 98.5536 25.6125 99.3516 25.0019M117.858 18.8359V28.1688H114.834V19.365C114.834 17.1702 114.119 16.1151 111.094 16.1151C110.379 16.1151 109.527 16.1982 108.701 16.3366V28.1688H105.677V14.2772C107.602 13.805 109.719 13.5004 111.176 13.5004C116.236 13.5004 117.858 15.4707 117.858 18.8313M133.203 8.72174V28.1642H130.425L130.261 26.3862C129.492 27.692 128.309 28.4964 126.327 28.4964C122.699 28.4964 120.279 25.8309 120.279 21.1645C120.279 16.4981 122.865 13.4989 127.951 13.4989C128.747 13.4989 129.49 13.582 130.206 13.7204V9.13855C131.141 8.80479 132.213 8.72174 133.203 8.72174ZM130.206 24.9419V16.3873C129.408 16.2212 128.584 16.109 127.786 16.109C124.789 16.109 123.36 17.9977 123.36 21.1645C123.36 23.9976 124.486 25.997 127.182 25.997C128.392 25.997 129.382 25.5802 130.207 24.9419M148.412 22.2211H138.761C139.146 24.6928 140.576 25.8863 143.27 25.8863C144.92 25.8863 146.599 25.5249 148.109 24.8312C147.999 25.6356 147.834 26.6922 147.642 27.6074C146.267 28.2472 144.809 28.4964 143.188 28.4964C138.127 28.4964 135.68 25.6633 135.68 20.9153C135.68 16.7765 137.578 13.5004 142.39 13.5004C146.707 13.5004 148.577 16.3612 148.577 19.8603C148.577 20.7216 148.522 21.4152 148.412 22.2211ZM138.705 19.6649H145.523C145.523 17.3871 144.314 16.0551 142.224 16.0551C140.133 16.0551 138.953 17.3056 138.705 19.6649ZM158.998 13.6112C158.998 14.5279 158.889 15.6399 158.724 16.2228C158.01 16.1397 157.294 16.112 156.442 16.112C155.7 16.112 154.957 16.1674 154.215 16.2781V28.1657H151.19V14.2772C152.483 13.8327 154.654 13.5004 156.36 13.5004C157.294 13.5004 158.341 13.5266 159 13.6112" fill="white"></path><path d="M59.8206 38.8381C61.3391 38.8381 62.4157 39.1405 63.0514 39.7453C63.6871 40.3501 64.005 41.2573 64.005 42.4659V48.7117H62.709V42.6906C62.709 41.7306 62.4988 41.0357 62.0794 40.6059C61.6601 40.1761 60.8941 39.9607 59.7837 39.9607C59.0557 39.9607 58.3144 40.0477 57.5618 40.2228V48.7127H56.2842V39.3622C57.5926 39.0132 58.7717 38.8381 59.8206 38.8381Z" fill="white"></path><path d="M69.0598 48.9364C67.8007 48.9364 66.7518 48.693 65.912 48.2073C65.9244 47.7713 65.9859 47.4036 66.0976 47.1044C66.9374 47.5901 67.9186 47.8334 69.0414 47.8334C70.5599 47.8334 71.3186 47.3094 71.3186 46.2624C71.3186 45.8264 71.1669 45.4805 70.8644 45.2247C70.5619 44.9689 70.078 44.7297 69.4115 44.505L68.5594 44.2057C67.6951 43.9188 67.0502 43.5543 66.6246 43.1121C66.1991 42.6699 65.9859 42.0992 65.9859 41.4012C65.9859 40.5779 66.2822 39.9462 66.8748 39.5029C67.4675 39.0607 68.2939 38.8391 69.3561 38.8391C70.5035 38.8391 71.4847 39.0017 72.2999 39.3259C72.2753 39.6873 72.2137 40.0425 72.1143 40.3915C71.2745 40.0798 70.3671 39.9244 69.393 39.9244C67.9483 39.9244 67.2265 40.405 67.2265 41.365C67.2265 41.8134 67.3865 42.1686 67.7084 42.4306C68.0294 42.6926 68.4979 42.9298 69.1152 43.1411L70.0041 43.4403C70.9177 43.7521 71.578 44.1228 71.9851 44.5526C72.3921 44.9824 72.5962 45.5406 72.5962 46.2262C72.5962 47.0619 72.2845 47.7216 71.6611 48.2083C71.0377 48.6951 70.1702 48.9374 69.0598 48.9374V48.9364Z" fill="white"></path><path d="M80.8532 39.0628H82.1308V48.7116H80.927L80.8717 47.5704C80.1314 48.4807 79.1132 48.9353 77.8172 48.9353C76.7314 48.9353 75.8916 48.6391 75.299 48.0468C74.7064 47.4544 74.41 46.5669 74.41 45.3821V39.0618H75.6876V45.0642C75.6876 46.8972 76.5325 47.8138 78.2243 47.8138C79.2363 47.8138 80.1129 47.4585 80.8532 46.7481V39.0628Z" fill="white"></path><path d="M94.7013 38.8381C96.0711 38.8381 97.0647 39.1436 97.6819 39.7547C98.2992 40.3657 98.6078 41.2698 98.6078 42.4659V48.7117H97.3118V42.6533C97.3118 41.743 97.0954 41.0668 96.6638 40.6246C96.2311 40.1824 95.54 39.9607 94.5895 39.9607C93.7129 39.9607 92.8424 40.1544 91.979 40.5407C92.1759 41.015 92.2754 41.6063 92.2754 42.3168V48.7127H90.9793V42.4856C90.9793 41.6136 90.7784 40.9746 90.3775 40.5686C89.9766 40.1637 89.2445 39.9607 88.1833 39.9607C87.4061 39.9607 86.6401 40.0477 85.8875 40.2228V48.7127H84.61V39.3622C85.9183 39.0132 87.1528 38.8381 88.3125 38.8381C89.67 38.8381 90.6697 39.1064 91.3115 39.6418C92.4466 39.1064 93.5765 38.8381 94.7003 38.8381H94.7013Z" fill="white"></path><path d="M108.661 43.1761C108.661 43.5624 108.637 43.9239 108.587 44.2604H101.663C101.737 45.4203 102.07 46.3016 102.663 46.9064C103.256 47.5112 104.088 47.8136 105.162 47.8136C106.31 47.8136 107.347 47.5454 108.273 47.009C108.223 47.4833 108.156 47.8882 108.069 48.2248C107.254 48.6991 106.278 48.9352 105.143 48.9352C103.588 48.9352 102.406 48.493 101.598 47.6075C100.789 46.7231 100.385 45.4638 100.385 43.8296C100.385 42.3466 100.739 41.1432 101.449 40.2205C102.159 39.2978 103.235 38.8369 104.68 38.8369C106.013 38.8369 107.009 39.2387 107.67 40.0434C108.33 40.847 108.66 41.892 108.66 43.1751L108.661 43.1761ZM104.625 39.9409C103.712 39.9409 103.009 40.2246 102.514 40.7911C102.021 41.3586 101.737 42.153 101.662 43.1751H107.365V43.1005C107.365 42.1405 107.13 41.3742 106.662 40.8004C106.192 40.2267 105.513 39.9398 104.625 39.9398V39.9409Z" fill="white"></path><path d="M113.901 38.8381C114.604 38.8381 115.129 38.863 115.475 38.9127C115.475 39.3611 115.431 39.735 115.345 40.0343C115 39.9846 114.531 39.9597 113.939 39.9597C113.26 39.9597 112.599 40.0405 111.958 40.2031V48.7117H110.68V39.3622C111.655 39.0132 112.729 38.8381 113.902 38.8381H113.901Z" fill="white"></path></svg>