<svg xmlns="http://www.w3.org/2000/svg" width="65" height="65" viewBox="0 0 65 65" fill="none"><path fill-rule="evenodd" clip-rule="evenodd" d="M56.9491 7.19677C56.8362 6.57477 56.2918 6.1031 55.6373 6.1031L55.3976 6.12459C54.7756 6.23748 54.3039 6.78188 54.3039 7.43644L54.3014 8.76977H52.9706L52.7309 8.79125C52.1089 8.90415 51.6373 9.44854 51.6373 10.1031L51.6587 10.3428C51.7716 10.9648 52.316 11.4364 52.9706 11.4364H54.3014L54.3039 12.7698L54.3254 13.0094C54.4383 13.6314 54.9827 14.1031 55.6373 14.1031L55.8769 14.0816C56.4989 13.9687 56.9706 13.4243 56.9706 12.7698L56.9681 11.4364H58.3039L58.5436 11.415C59.1656 11.3021 59.6373 10.7577 59.6373 10.1031L59.6158 9.86344C59.5029 9.24144 58.9585 8.76977 58.3039 8.76977H56.9681L56.9706 7.43644L56.9491 7.19677ZM32.5798 6.49336C32.0589 5.97281 31.2147 5.97305 30.6942 6.4939C30.1736 7.01474 30.1739 7.85896 30.6947 8.37951C34.8617 12.5441 34.8617 18.3288 30.6947 22.4934C30.1739 23.0139 30.1736 23.8581 30.6942 24.379C31.2147 24.8998 32.0589 24.9001 32.5798 24.3795C37.7888 19.1734 37.7888 11.6995 32.5798 6.49336ZM46.6944 17.1603C47.2151 16.6396 48.0594 16.6396 48.5801 17.1603C49.0429 17.6231 49.0943 18.3416 48.7343 18.8613L48.5801 19.0459L37.9134 29.7126C37.3927 30.2333 36.5485 30.2333 36.0278 29.7126C35.5649 29.2497 35.5135 28.5313 35.8735 28.0116L36.0278 27.827L46.6944 17.1603ZM22.3359 22.3354C21.6772 21.8803 20.734 22.1074 20.3757 22.8658L6.83434 51.5298L6.65381 51.9579C5.89999 53.9766 6.38318 56.2696 7.92644 57.8128C9.58123 59.4676 12.0934 59.9051 14.2097 58.9048L42.8734 45.3663L43.0848 45.2422C43.7355 44.7757 43.8398 43.8111 43.2468 43.218L22.5241 22.4926L22.3359 22.3354ZM9.2458 52.6683L21.9777 25.7176L40.0218 43.764L13.0705 56.4938L12.7356 56.6272C11.7166 56.961 10.585 56.7002 9.81206 55.9272C8.95464 55.0698 8.72815 53.7655 9.2458 52.6683ZM50.3039 35.4364C50.9585 35.4364 51.5029 35.9081 51.6158 36.5301L51.6372 36.7698L51.6348 38.1031H52.9706C53.6251 38.1031 54.1695 38.5748 54.2824 39.1968L54.3039 39.4364C54.3039 40.091 53.8322 40.6354 53.2103 40.7483L52.9706 40.7698H51.6348L51.6372 42.1031C51.6372 42.7577 51.1656 43.3021 50.5436 43.415L50.3039 43.4364C49.6494 43.4364 49.105 42.9648 48.9921 42.3428L48.9706 42.1031L48.9681 40.7698H47.6372C46.9827 40.7698 46.4383 40.2981 46.3254 39.6761L46.3039 39.4364C46.3039 38.7819 46.7756 38.2375 47.3976 38.1246L47.6372 38.1031H48.9681L48.9706 36.7698C48.9706 36.1152 49.4422 35.5708 50.0642 35.4579L50.3039 35.4364ZM59.2465 33.16C54.0378 27.9544 46.57 27.9544 41.3614 33.16C40.8405 33.6806 40.8403 34.5248 41.3608 35.0456C41.8814 35.5665 42.7256 35.5667 43.2465 35.0462C47.4138 30.8812 53.194 30.8812 57.3614 35.0462C57.8822 35.5667 58.7264 35.5665 59.247 35.0456C59.7675 34.5248 59.7673 33.6806 59.2465 33.16ZM26.3039 11.4364C26.9585 11.4364 27.5029 11.9081 27.6158 12.5301L27.6373 12.7698L27.6348 14.1031H28.9706C29.6251 14.1031 30.1695 14.5748 30.2824 15.1968L30.3039 15.4364C30.3039 16.091 29.8323 16.6354 29.2103 16.7483L28.9706 16.7698H27.6348L27.6373 18.1031C27.6373 18.7577 27.1656 19.3021 26.5436 19.415L26.3039 19.4364C25.6494 19.4364 25.105 18.9648 24.9921 18.3428L24.9706 18.1031L24.9681 16.7698H23.6373C22.9827 16.7698 22.4383 16.2981 22.3254 15.6761L22.3039 15.4364C22.3039 14.7819 22.7756 14.2375 23.3976 14.1246L23.6373 14.1031H24.9681L24.9706 12.7698C24.9706 12.1152 25.4423 11.5708 26.0643 11.4579L26.3039 11.4364Z" fill="#9E3667"></path></svg>