<svg xmlns="http://www.w3.org/2000/svg" width="64" height="65" viewBox="0 0 64 65" fill="none"><path fill-rule="evenodd" clip-rule="evenodd" d="M10.4589 10.3393C9.94742 9.97936 9.24018 10.0308 8.78457 10.4936L8.6327 10.6783C8.27833 11.1979 8.32896 11.9164 8.78457 12.3792L13.1076 16.7698L8.78457 21.1603L8.6327 21.345C8.27833 21.8646 8.32896 22.5831 8.78457 23.0459L8.96634 23.2002C9.47787 23.5602 10.1851 23.5088 10.6407 23.0459L14.9634 18.6551L19.2846 23.0459L19.4663 23.2002C19.9779 23.5602 20.6851 23.5088 21.1407 23.0459L21.2926 22.8613C21.647 22.3416 21.5963 21.6231 21.1407 21.1603L16.8193 16.7698L21.1407 12.3792L21.2926 12.1946C21.647 11.6749 21.5963 10.9565 21.1407 10.4936L20.9589 10.3393C20.4474 9.97936 19.7402 10.0308 19.2846 10.4936L14.9634 14.8844L10.6407 10.4936L10.4589 10.3393ZM55.4549 11.2643L57.136 12.859C58.654 14.401 58.654 16.9012 57.143 18.4361L44.5341 31.4364H51.7134C52.3578 31.4364 52.8937 31.9081 53.0048 32.5301L53.0259 32.7698V54.1031C53.0259 54.7577 52.5616 55.3021 51.9494 55.415L51.7134 55.4364H7.08843C6.4441 55.4364 5.90821 54.9648 5.79708 54.3428L5.77593 54.1031V32.7698C5.77593 32.1152 6.24023 31.5708 6.85251 31.4579L7.08843 31.4364H30.1648L49.9931 11.2963C51.5113 9.75406 53.9734 9.75406 55.4549 11.2643ZM29.3983 34.1031H8.40093V52.7698H50.4009V34.1031H41.9484L37.1668 39.0388C36.9201 39.2932 36.5832 39.4364 36.2317 39.4364H30.7113C29.9865 39.4364 29.3988 38.8395 29.3988 38.1031L29.3983 34.1031ZM47.7751 48.7698C47.7751 48.0334 47.1875 47.4364 46.4626 47.4364H38.5876L38.3517 47.4579C37.7394 47.5708 37.2751 48.1152 37.2751 48.7698C37.2751 49.5061 37.8628 50.1031 38.5876 50.1031H46.4626L46.6986 50.0816C47.3108 49.9687 47.7751 49.4243 47.7751 48.7698ZM46.4621 42.1031C47.187 42.1031 47.7746 42.7001 47.7746 43.4364C47.7746 44.091 47.3103 44.6354 46.698 44.7483L46.4621 44.7698H12.3607C11.6359 44.7698 11.0482 44.1728 11.0482 43.4364C11.0482 42.7819 11.5125 42.2375 12.1248 42.1246L12.3607 42.1031H46.4621ZM24.1732 38.1383C24.1732 37.4019 23.5856 36.805 22.8607 36.805H12.3607L12.1248 36.8265C11.5125 36.9393 11.0482 37.4837 11.0482 38.1383C11.0482 38.8747 11.6359 39.4716 12.3607 39.4716H22.8607L23.0967 39.4502C23.7089 39.3373 24.1732 38.7929 24.1732 38.1383ZM51.8493 13.1819L32.0238 33.3221V36.7698H35.6822L55.2799 16.5576C55.7727 16.057 55.7727 15.2452 55.3125 14.7766L53.6302 13.1807C53.1401 12.6815 52.3419 12.6815 51.8493 13.1819Z" fill="#9E3667"></path></svg>