<svg xmlns="http://www.w3.org/2000/svg" width="65" height="65" viewBox="0 0 65 65" fill="none"><path fill-rule="evenodd" clip-rule="evenodd" d="M36.5251 10.1031C40.0528 10.1031 42.9513 12.8581 43.1776 16.3319L43.1918 16.7698L43.1865 16.8391C49.1198 19.3111 53.1625 24.8524 53.7385 31.2284C55.3491 30.7138 56.5251 29.2178 56.5251 27.4364C56.5251 26.7004 57.1225 26.1031 57.8585 26.1031C58.5945 26.1031 59.1918 26.7004 59.1918 27.4364C59.1918 30.6791 56.8665 33.3804 53.7971 33.9751C53.3517 40.417 49.3837 45.9044 43.7965 48.5001L43.1918 48.7671V54.1031C43.1918 54.8391 42.5945 55.4364 41.8585 55.4364C41.2042 55.4364 40.6596 54.9645 40.5466 54.3427L40.5251 54.1031V49.6178C39.4969 49.8631 38.4362 50.0265 37.3471 50.0821L36.5251 50.1031H25.8585C24.7598 50.1031 23.6884 49.9717 22.6403 49.7607L21.8585 49.5884V54.1031C21.8585 54.8391 21.2611 55.4364 20.5251 55.4364C19.8709 55.4364 19.3262 54.9645 19.2133 54.3427L19.1918 54.1031V48.7698C19.1918 48.7631 19.1938 48.7564 19.1958 48.7498C19.1978 48.7431 19.1998 48.7364 19.1998 48.7298C15.2759 47.0927 12.0157 44.0785 10.1807 40.1408L9.87179 39.4364H7.19179C6.53757 39.4364 5.99291 38.9645 5.87995 38.3427L5.85846 38.1031V27.4364C5.85846 26.7822 6.33043 26.2376 6.95222 26.1246L7.19179 26.1031H9.86913C11.2931 22.6258 13.8131 19.7351 17.0691 17.8578L17.3277 17.2752L17.6534 16.604C17.7732 16.3682 17.9044 16.1214 18.0469 15.8678L18.5089 15.0901C19.9982 12.7181 22.4209 10.1031 25.8585 10.1031C26.5127 10.1031 27.0573 10.5751 27.1703 11.1969L27.1918 11.4364V15.4364H29.9945C30.6131 12.3964 33.3065 10.1031 36.5251 10.1031ZM24.5251 13.0044C22.0919 13.8719 20.4218 16.924 19.6982 18.506L19.3651 19.2844C19.2505 19.5778 19.0345 19.8204 18.7571 19.9698C15.6078 21.6684 13.2265 24.4764 12.0531 27.8711C11.8931 28.3328 11.498 28.6633 11.0307 28.7483L10.7918 28.7698H8.52513V36.7698H10.7918C11.3598 36.7698 11.8638 37.1298 12.0505 37.6658C14.0124 43.307 19.2533 47.1633 25.2169 47.4225L25.8585 47.4364H36.5251C44.6131 47.4364 51.1918 40.8551 51.1918 32.7698C51.1918 26.9991 47.7998 21.8071 42.6238 19.4498C42.5845 19.5409 42.5344 19.6272 42.4848 19.7127C42.4604 19.7549 42.436 19.7968 42.4131 19.8391L42.2211 20.2018L41.9951 20.5408L41.6051 21.0631C41.3785 21.3271 41.1331 21.5698 40.8691 21.7964L40.5838 22.0151C40.3971 22.1591 40.2051 22.2978 40.0051 22.4231L39.6558 22.6204C39.4558 22.7298 39.2478 22.8258 39.0371 22.9164L38.6665 23.0604C38.4345 23.1431 38.1971 23.2044 37.9571 23.2604L37.6185 23.3351C37.2611 23.3964 36.8958 23.4364 36.5251 23.4364C36.0905 23.4364 35.6691 23.3858 35.2585 23.3084L35.0601 23.2581L34.8638 23.2018C34.5945 23.1324 34.3278 23.0551 34.0718 22.9538L33.8551 22.8598L33.6425 22.7538C33.4158 22.6444 33.1971 22.5298 32.9891 22.3991L32.7821 22.2618L32.5811 22.1164C32.3891 21.9724 32.2051 21.8231 32.0265 21.6578L32.0264 21.6577L32.0264 21.6577L32.0264 21.6577C31.9064 21.5457 31.7864 21.4337 31.6745 21.3111L31.4341 21.0368L31.2078 20.7484C31.1869 20.7206 31.1658 20.6928 31.1448 20.6651L31.1445 20.6647C31.0691 20.5652 30.9939 20.4659 30.9251 20.3618L30.7268 20.0194L30.5465 19.6631C30.5232 19.6145 30.4983 19.567 30.4736 19.5197L30.4736 19.5197L30.4736 19.5197L30.4736 19.5197C30.4331 19.4424 30.3929 19.3655 30.3598 19.2844C30.262 19.0498 30.1785 18.8068 30.1091 18.5571L29.9945 18.1058L25.8585 18.1031C25.2042 18.1031 24.6596 17.6311 24.5466 17.0093L24.5251 16.7698V13.0044ZM19.1703 27.1969C19.0573 26.5751 18.5127 26.1031 17.8585 26.1031C17.1225 26.1031 16.5251 26.7004 16.5251 27.4364V30.1031L16.5466 30.3427C16.6596 30.9645 17.2042 31.4364 17.8585 31.4364C18.5945 31.4364 19.1918 30.8391 19.1918 30.1031V27.4364L19.1703 27.1969ZM41.8585 26.1031C42.5945 26.1031 43.1918 26.7004 43.1918 27.4364C43.1918 28.0907 42.7198 28.6353 42.098 28.7483L41.8585 28.7698H31.1918C30.4558 28.7698 29.8585 28.1724 29.8585 27.4364C29.8585 26.7822 30.3304 26.2376 30.9522 26.1246L31.1918 26.1031H41.8585ZM32.5251 16.7698C32.5251 14.5644 34.3198 12.7698 36.5251 12.7698C38.7305 12.7698 40.5251 14.5644 40.5251 16.7698C40.5251 17.0044 40.5065 17.2178 40.4638 17.4524C40.1411 19.3431 38.4505 20.7698 36.5251 20.7698C34.3198 20.7698 32.5251 18.9751 32.5251 16.7698Z" fill="#9E3667"></path></svg>