<svg xmlns="http://www.w3.org/2000/svg" width="20" height="19" viewBox="0 0 20 19" fill="none"><path d="M13.7576 6.72494L10.6262 1.30938C10.3875 0.896366 10.2225 0.453834 10.1308 0L10.0001 0.226319C9.22502 1.56681 9.22502 3.21806 9.99993 4.55855L12.5051 8.89119C13.28 10.2315 13.28 11.8831 12.5051 13.2236L12.3742 13.4499C12.2826 12.996 12.1176 12.5535 11.8788 12.1405L8.12118 5.64175C7.88241 5.22873 7.71755 4.7862 7.62579 4.33237L7.49502 4.55869C6.72264 5.89466 6.72024 7.53939 7.48743 8.87749L10.0001 13.2236C10.7751 14.5639 10.7751 16.2154 10.0001 17.5559L9.86916 17.7822C9.77754 17.3284 9.61255 16.8859 9.37377 16.473L6.24257 11.0573C5.82255 10.331 5.63066 9.51336 5.66581 8.7033C2.31368 9.57786 0 11.4347 0 13.5846C0 16.5754 4.47715 19 10.0001 19C15.5229 19 20 16.5754 20 13.5846C20 11.4345 17.6866 9.57719 14.3342 8.70277C14.3045 8.01809 14.1126 7.33887 13.7576 6.72494Z" fill="#EC0000"></path></svg>