<svg xmlns="http://www.w3.org/2000/svg" width="19" height="19" viewBox="0 0 19 19" fill="none"><path fill-rule="evenodd" clip-rule="evenodd" d="M4.95417 14.0773C8.09146 13.6189 10.2516 13.6583 13.393 14.0933C13.6205 14.1263 13.8284 14.2405 13.9783 14.4148C14.1281 14.5891 14.2099 14.8117 14.2084 15.0416C14.2084 15.2616 14.1327 15.4752 13.9962 15.642C13.7581 15.9329 13.5142 16.2189 13.2647 16.5H14.4751C14.5512 16.4093 14.6277 16.3167 14.7052 16.2227C14.9771 15.8893 15.1254 15.4722 15.125 15.0421C15.125 14.1139 14.4476 13.3141 13.5186 13.1858C10.3029 12.7408 8.05525 12.6981 4.82171 13.1707C3.88304 13.3077 3.20837 14.1199 3.20837 15.0544C3.20837 15.4692 3.34358 15.8794 3.59979 16.2117C3.67542 16.3098 3.75012 16.4061 3.82437 16.5005H5.0055C4.77332 16.2225 4.54685 15.9398 4.32625 15.6526C4.19515 15.4806 4.12443 15.2702 4.12504 15.054C4.12504 14.5603 4.47979 14.1465 4.95417 14.0773ZM9.16671 9.62501C9.52784 9.62501 9.88544 9.55388 10.2191 9.41568C10.5527 9.27748 10.8559 9.07492 11.1113 8.81955C11.3666 8.56419 11.5692 8.26103 11.7074 7.92739C11.8456 7.59374 11.9167 7.23615 11.9167 6.87501C11.9167 6.51388 11.8456 6.15628 11.7074 5.82263C11.5692 5.48899 11.3666 5.18583 11.1113 4.93047C10.8559 4.67511 10.5527 4.47254 10.2191 4.33434C9.88544 4.19614 9.52784 4.12501 9.16671 4.12501C8.43736 4.12501 7.73789 4.41474 7.22216 4.93047C6.70644 5.44619 6.41671 6.14566 6.41671 6.87501C6.41671 7.60436 6.70644 8.30383 7.22216 8.81955C7.73789 9.33528 8.43736 9.62501 9.16671 9.62501ZM9.16671 10.5417C10.1392 10.5417 11.0718 10.1554 11.7594 9.46774C12.4471 8.7801 12.8334 7.84747 12.8334 6.87501C12.8334 5.90255 12.4471 4.96992 11.7594 4.28229C11.0718 3.59465 10.1392 3.20834 9.16671 3.20834C8.19425 3.20834 7.26162 3.59465 6.57398 4.28229C5.88635 4.96992 5.50004 5.90255 5.50004 6.87501C5.50004 7.84747 5.88635 8.7801 6.57398 9.46774C7.26162 10.1554 8.19425 10.5417 9.16671 10.5417Z" fill="#EA1D25"></path><path fill-rule="evenodd" clip-rule="evenodd" d="M9.16667 17.4167C13.723 17.4167 17.4167 13.723 17.4167 9.16667C17.4167 4.61037 13.723 0.916667 9.16667 0.916667C4.61037 0.916667 0.916667 4.61037 0.916667 9.16667C0.916667 13.723 4.61037 17.4167 9.16667 17.4167ZM9.16667 18.3333C14.2294 18.3333 18.3333 14.2294 18.3333 9.16667C18.3333 4.10392 14.2294 0 9.16667 0C4.10392 0 0 4.10392 0 9.16667C0 14.2294 4.10392 18.3333 9.16667 18.3333Z" fill="#EA1D25"></path></svg>